<?xml version="1.0" ?><svg style="enable-background:new 0 0 48 48;" version="1.1" viewBox="0 0 48 48" xml:space="preserve" xmlns="http://www.w3.org/2000/svg" xmlns:xlink="http://www.w3.org/1999/xlink"><style type="text/css">
	.st0{display:none;}
	.st1{fill:none;stroke:#FFF;stroke-width:0.7;stroke-linecap:round;stroke-linejoin:round;stroke-miterlimit:10;}
	.st2{fill:#303030;}
</style><g class="st0" id="Padding__x26__Artboard"/><g id="Icons"><g><g><circle class="st1" cx="24" cy="24" r="15.34377"/><g><path class="st1" d="M21.6607,11.47916c0.53679-0.0955,1.07644-0.1576,1.61342-0.18429"/><path class="st1" d="M15.23582,14.66794c1.44125-1.2413,3.22635-2.35482,5.10565-2.8855"/></g></g><g><path class="st1" d="M24.86241,22.65916c0-0.37413-0.00633-0.74842,0.00284-1.12232     c0.00418-0.17041-0.05044-0.23443-0.22721-0.23316c-0.91956,0.00657-1.83921,0.00618-2.75877,0.00016     c-0.16858-0.0011-0.23149,0.04476-0.23125,0.22461c0.00472,3.388,0.00463,6.77602,0.00013,10.16403     c-0.00023,0.17598,0.05597,0.22882,0.22816,0.2277c0.96192-0.00626,1.92392-0.00677,2.88582,0.00042     c0.17502,0.00131,0.22412-0.05272,0.22344-0.22696c-0.00626-1.60928-0.0083-3.21862-0.0004-4.82788     c0.00196-0.3974,0.02636-0.79677,0.07344-1.1913c0.0514-0.43074,0.18933-0.83798,0.49199-1.16651     c0.38857-0.42177,0.89336-0.51685,1.4383-0.50663c0.76062,0.01426,1.23459,0.3686,1.45193,1.0967     c0.14006,0.46923,0.15128,0.95168,0.15153,1.43514c0.00089,1.71215,0.00015,3.42431,0.00065,5.13647     c0.00007,0.23921,0.00777,0.24711,0.24296,0.24729c0.93776,0.00072,1.8755,0.00046,2.81326,0.00026     c0.2923-0.00006,0.29384-0.0005,0.29265-0.28864c-0.00851-2.07445-0.01402-4.14892-0.02889-6.22333     c-0.00456-0.63551-0.08986-1.26384-0.26389-1.87646c-0.26643-0.93789-0.76835-1.70284-1.69026-2.10235     c-0.96453-0.41798-1.97464-0.49359-2.99585-0.24308C26.08163,21.3995,25.38494,21.89417,24.86241,22.65916z M19.64494,26.62172     c0-1.69379-0.003-3.38759,0.0043-5.08135c0.00079-0.18384-0.04828-0.23885-0.23202-0.23734     c-0.95572,0.00784-1.91156,0.00733-2.86729,0.00031c-0.17909-0.00132-0.23944,0.04884-0.23916,0.23558     c0.00516,3.38152,0.00513,6.76305,0.00005,10.14457c-0.00027,0.18503,0.05664,0.23845,0.23768,0.23708     c0.95572-0.00726,1.91157-0.00737,2.86729,0.00009c0.18121,0.00141,0.23445-0.04946,0.23361-0.23576     C19.64179,29.99721,19.64494,28.30946,19.64494,26.62172z M16.05799,18.00804c0.00018,1.05616,0.86514,1.94054,1.92286,1.92994     c1.09141-0.01094,1.93827-0.83299,1.9363-1.93208c-0.002-1.11825-0.86416-1.9328-1.93835-1.92656     C16.83331,16.08598,16.06001,17.0028,16.05799,18.00804z"/></g></g></g></svg>
